<mxfile host="Electron" modified="2024-07-07T17:59:45.804Z" agent="Mozilla/5.0 (X11; Linux x86_64) AppleWebKit/537.36 (KHTML, like Gecko) draw.io/22.1.18 Chrome/120.0.6099.199 Electron/28.1.2 Safari/537.36" etag="d9qhg7oznHGhVhb1928Q" version="22.1.18" type="device">
  <diagram name="Page-1" id="5wJyQqMARzXPJ0OGq6rA">
    <mxGraphModel dx="777" dy="482" grid="1" gridSize="10" guides="1" tooltips="1" connect="1" arrows="1" fold="1" page="1" pageScale="1" pageWidth="1169" pageHeight="827" math="0" shadow="0">
      <root>
        <mxCell id="0" />
        <mxCell id="1" parent="0" />
        <mxCell id="W_C8JeESV1Rd6KMZ6yUq-21" value="" style="endArrow=none;html=1;rounded=0;dashed=1;" edge="1" parent="1">
          <mxGeometry width="50" height="50" relative="1" as="geometry">
            <mxPoint x="980" y="530" as="sourcePoint" />
            <mxPoint x="980" y="380" as="targetPoint" />
          </mxGeometry>
        </mxCell>
        <mxCell id="W_C8JeESV1Rd6KMZ6yUq-13" value="" style="endArrow=none;html=1;rounded=0;exitX=0;exitY=0.5;exitDx=0;exitDy=0;dashed=1;" edge="1" parent="1" source="W_C8JeESV1Rd6KMZ6yUq-12">
          <mxGeometry width="50" height="50" relative="1" as="geometry">
            <mxPoint x="670" y="460" as="sourcePoint" />
            <mxPoint x="980" y="380" as="targetPoint" />
          </mxGeometry>
        </mxCell>
        <mxCell id="W_C8JeESV1Rd6KMZ6yUq-5" value="" style="rounded=0;whiteSpace=wrap;html=1;direction=south;" vertex="1" parent="1">
          <mxGeometry x="570" y="520" width="490" height="10" as="geometry" />
        </mxCell>
        <mxCell id="W_C8JeESV1Rd6KMZ6yUq-6" value="" style="sketch=0;pointerEvents=1;shadow=0;dashed=0;html=1;strokeColor=none;fillColor=#505050;labelPosition=center;verticalLabelPosition=bottom;verticalAlign=top;outlineConnect=0;align=center;shape=mxgraph.office.devices.video_camera;direction=west;flipV=1;" vertex="1" parent="1">
          <mxGeometry x="950" y="379" width="52" height="25" as="geometry" />
        </mxCell>
        <mxCell id="W_C8JeESV1Rd6KMZ6yUq-7" value="" style="ellipse;whiteSpace=wrap;html=1;aspect=fixed;strokeColor=none;fillColor=#82B366;" vertex="1" parent="1">
          <mxGeometry x="640" y="515" width="10" height="10" as="geometry" />
        </mxCell>
        <mxCell id="W_C8JeESV1Rd6KMZ6yUq-8" value="" style="endArrow=none;html=1;rounded=0;strokeWidth=3;" edge="1" parent="1">
          <mxGeometry width="50" height="50" relative="1" as="geometry">
            <mxPoint x="645" y="520" as="sourcePoint" />
            <mxPoint x="645" y="480" as="targetPoint" />
          </mxGeometry>
        </mxCell>
        <mxCell id="W_C8JeESV1Rd6KMZ6yUq-10" value="19 cm" style="text;html=1;align=center;verticalAlign=middle;resizable=0;points=[];autosize=1;strokeColor=none;fillColor=none;" vertex="1" parent="1">
          <mxGeometry x="615" y="450" width="60" height="30" as="geometry" />
        </mxCell>
        <mxCell id="W_C8JeESV1Rd6KMZ6yUq-12" value="" style="ellipse;whiteSpace=wrap;html=1;aspect=fixed;strokeColor=none;fillColor=#FF0000;" vertex="1" parent="1">
          <mxGeometry x="585" y="515" width="10" height="10" as="geometry" />
        </mxCell>
        <mxCell id="W_C8JeESV1Rd6KMZ6yUq-20" value="z cm" style="text;html=1;align=center;verticalAlign=middle;resizable=0;points=[];autosize=1;strokeColor=none;fillColor=none;" vertex="1" parent="1">
          <mxGeometry x="985" y="450" width="50" height="30" as="geometry" />
        </mxCell>
        <mxCell id="W_C8JeESV1Rd6KMZ6yUq-27" value="" style="endArrow=none;html=1;rounded=0;curved=1;" edge="1" parent="1">
          <mxGeometry width="50" height="50" relative="1" as="geometry">
            <mxPoint x="980" y="430" as="sourcePoint" />
            <mxPoint x="910" y="410" as="targetPoint" />
            <Array as="points">
              <mxPoint x="930" y="440" />
            </Array>
          </mxGeometry>
        </mxCell>
        <mxCell id="W_C8JeESV1Rd6KMZ6yUq-28" value="theta" style="text;html=1;align=center;verticalAlign=middle;resizable=0;points=[];autosize=1;strokeColor=none;fillColor=none;" vertex="1" parent="1">
          <mxGeometry x="900" y="430" width="50" height="30" as="geometry" />
        </mxCell>
        <mxCell id="W_C8JeESV1Rd6KMZ6yUq-31" value="" style="endArrow=none;html=1;rounded=0;" edge="1" parent="1">
          <mxGeometry width="50" height="50" relative="1" as="geometry">
            <mxPoint x="590" y="540" as="sourcePoint" />
            <mxPoint x="645" y="540" as="targetPoint" />
          </mxGeometry>
        </mxCell>
        <mxCell id="W_C8JeESV1Rd6KMZ6yUq-34" value="" style="endArrow=none;html=1;rounded=0;" edge="1" parent="1">
          <mxGeometry width="50" height="50" relative="1" as="geometry">
            <mxPoint x="645" y="545" as="sourcePoint" />
            <mxPoint x="645" y="535" as="targetPoint" />
          </mxGeometry>
        </mxCell>
        <mxCell id="W_C8JeESV1Rd6KMZ6yUq-36" value="" style="endArrow=none;html=1;rounded=0;" edge="1" parent="1">
          <mxGeometry width="50" height="50" relative="1" as="geometry">
            <mxPoint x="590" y="545" as="sourcePoint" />
            <mxPoint x="590" y="535" as="targetPoint" />
          </mxGeometry>
        </mxCell>
        <mxCell id="W_C8JeESV1Rd6KMZ6yUq-37" value="&lt;font color=&quot;#ff0000&quot;&gt;error&lt;/font&gt;" style="text;html=1;align=center;verticalAlign=middle;resizable=0;points=[];autosize=1;strokeColor=none;fillColor=none;" vertex="1" parent="1">
          <mxGeometry x="593" y="540" width="50" height="30" as="geometry" />
        </mxCell>
        <mxCell id="W_C8JeESV1Rd6KMZ6yUq-38" value="&lt;font color=&quot;#ff0000&quot;&gt;error = tan(theta)*(19/2) cm&lt;/font&gt;" style="text;html=1;align=center;verticalAlign=middle;resizable=0;points=[];autosize=1;strokeColor=none;fillColor=none;" vertex="1" parent="1">
          <mxGeometry x="750" y="480" width="170" height="30" as="geometry" />
        </mxCell>
      </root>
    </mxGraphModel>
  </diagram>
</mxfile>
